<svg id="Componente_12_2" data-name="Componente 12 – 2" xmlns="http://www.w3.org/2000/svg" width="96.897" height="34.922" viewBox="0 0 96.897 34.922">
  <path id="União_6" data-name="União 6" d="M723.442-676.04a14.554,14.554,0,0,1-4.9-2.957l3.184-3.815a16.041,16.041,0,0,0,3.448,2.17,9.224,9.224,0,0,0,3.867.8,4.714,4.714,0,0,0,2.607-.612,1.929,1.929,0,0,0,.928-1.7v-.07a2.121,2.121,0,0,0-.193-.928,1.944,1.944,0,0,0-.736-.752,7.782,7.782,0,0,0-1.509-.7q-.965-.35-2.509-.734a30.585,30.585,0,0,1-3.369-1.015,9.513,9.513,0,0,1-2.562-1.382,5.594,5.594,0,0,1-1.632-2.047,7.11,7.11,0,0,1-.579-3.046v-.069a7.1,7.1,0,0,1,.625-3.028,6.9,6.9,0,0,1,1.756-2.327,7.888,7.888,0,0,1,2.7-1.506,10.867,10.867,0,0,1,3.459-.525,14.634,14.634,0,0,1,4.953.805,14.334,14.334,0,0,1,4.147,2.309l-2.8,4.06a17.806,17.806,0,0,0-3.219-1.768,8.241,8.241,0,0,0-3.15-.647,3.808,3.808,0,0,0-2.362.613,1.857,1.857,0,0,0-.787,1.522v.07a2.2,2.2,0,0,0,.228,1.032,2.067,2.067,0,0,0,.824.788,7.787,7.787,0,0,0,1.632.665q1.035.315,2.615.735a25,25,0,0,1,3.316,1.1,9.244,9.244,0,0,1,2.457,1.47,5.609,5.609,0,0,1,1.509,2.012,6.829,6.829,0,0,1,.509,2.765v.07a7.584,7.584,0,0,1-.661,3.237,6.639,6.639,0,0,1-1.843,2.38,8.307,8.307,0,0,1-2.821,1.47,12.255,12.255,0,0,1-3.634.508A16.223,16.223,0,0,1,723.442-676.04Zm-68.6.787-9.809-24.436h-.011L641-710h5.785l4.161,10.211h-.008l6.353,17.115,6.028-16.24H663.3l4.2-11.044L736.179-710v5.18l-64.757.017-2.3,5.89H669.1l-9.5,23.66Zm57.68-.175L700.656-691v15.575h-5.32v-24.5h4.97l11.48,15.085v-15.085h5.32v24.5Zm-23.8,0-2.24-5.495h-10.36l-2.24,5.495h-5.494l10.5-24.674h4.971l10.5,24.674Zm-10.675-10.255h6.51l-3.254-7.945Z" transform="translate(-641 710)" fill="#363534"/>
</svg>
