<svg xmlns="http://www.w3.org/2000/svg" width="29.457" height="29.463" viewBox="0 0 29.457 29.463">
  <path id="Subtração_7" data-name="Subtração 7" d="M668.849-679.537a.928.928,0,0,1-.658-.273l-5.931-5.932a.92.92,0,0,1-.27-.658v-2l-.808.632a11.752,11.752,0,0,1-7.307,2.512A11.888,11.888,0,0,1,642-697.126,11.888,11.888,0,0,1,653.874-709a11.888,11.888,0,0,1,11.875,11.875,11.752,11.752,0,0,1-2.512,7.307l-.632.808h2a.919.919,0,0,1,.657.27l5.93,5.929a.937.937,0,0,1,0,1.318l-1.685,1.686A.912.912,0,0,1,668.849-679.537Zm-14.974-25.7a8.061,8.061,0,0,0-5.74,2.377,8.061,8.061,0,0,0-2.375,5.738,8.062,8.062,0,0,0,2.377,5.741,8.064,8.064,0,0,0,5.738,2.374,8.062,8.062,0,0,0,5.741-2.377,8.064,8.064,0,0,0,2.374-5.738,8.061,8.061,0,0,0-2.377-5.74A8.061,8.061,0,0,0,653.874-705.241Z" transform="translate(-642 709)" fill="#fff"/>
</svg>
