<svg xmlns="http://www.w3.org/2000/svg" width="33.828" height="32.427" viewBox="0 0 33.828 32.427">
  <path id="União_7" data-name="União 7" d="M666.223-680.475a2.9,2.9,0,0,1,2.9-2.9,2.9,2.9,0,0,1,2.9,2.9,2.905,2.905,0,0,1-2.9,2.9A2.9,2.9,0,0,1,666.223-680.475Zm-15.414,0a2.9,2.9,0,0,1,2.9-2.9,2.9,2.9,0,0,1,2.9,2.9,2.9,2.9,0,0,1-2.9,2.9A2.905,2.905,0,0,1,650.809-680.475Zm-.419-8.97-2.34-11.692c-.01-.04-.019-.081-.025-.122L646.876-707H642.5a1.5,1.5,0,0,1-1.5-1.5,1.5,1.5,0,0,1,1.5-1.5h5.605a1.5,1.5,0,0,1,1.471,1.206l1.161,5.8h22.591a1.5,1.5,0,0,1,1.156.544,1.5,1.5,0,0,1,.318,1.237l-2.242,11.757a.044.044,0,0,0,0,.011,4.3,4.3,0,0,1-4.219,3.464h-13.73A4.3,4.3,0,0,1,650.39-689.445Zm2.942-.587a1.3,1.3,0,0,0,1.3,1.051h13.7a1.3,1.3,0,0,0,1.276-1.044l1.9-9.969H651.337Z" transform="translate(-641 710)" fill="#fff"/>
</svg>
